<svg width="830" height="147" viewBox="0 0 830 147" fill="none" xmlns="http://www.w3.org/2000/svg">
<path d="M368.51 87.946C363.387 102.347 349.965 112.638 334.177 112.638C313.968 112.638 297.588 95.8165 297.588 75.0651C297.588 54.3137 313.968 37.4925 334.177 37.4925C349.173 37.4925 362.054 46.7731 367.698 60.044H406C399.474 26.4017 369.803 1 334.177 1C293.769 1 261 33.6822 261 74.005C261 114.318 293.769 147 334.177 147C369.803 147 399.474 121.588 406 87.956H368.51V87.946Z" fill="#E43D30"/>
<path d="M478.054 107.775C463.653 102.688 453.362 89.3573 453.362 73.677C453.362 53.6062 470.184 37.3485 490.935 37.3485C511.686 37.3485 528.508 53.6161 528.508 73.677C528.508 88.5708 519.227 101.364 505.956 106.969V145C539.598 138.519 565 109.06 565 73.667C565 33.5354 532.318 1 492.005 1C451.692 1 419 33.5354 419 73.667C419 109.06 444.412 138.519 478.044 145V107.775H478.054Z" fill="#E43D30"/>
<path d="M777.294 110.546V89.5943H823.127V57.9567H777.294V37.3438H828.309V4H739V58.0165H775.633V88.866H739V144H830V110.546H777.294Z" fill="#E43D30"/>
<path d="M192.284 110.546V89.5943H238.127V57.9567H192.284V37.3438H243.309V4H154V58.0165H190.623V88.866H154V144H245V110.546H192.284Z" fill="#E43D30"/>
<path d="M60.7176 4H0V39.3218H58.8916C79.6264 39.3218 93.4562 53.1212 93.4562 73.8852C93.4562 94.5395 79.6264 108.678 58.8916 108.678H0V144H60.7176C102.985 144 133 114.735 133 73.8852C133 32.9858 103.115 4 60.7176 4Z" fill="#E43D30"/>
<path d="M642.916 0H579V37.0868H640.994C662.82 37.0868 677.38 51.5782 677.38 73.3852C677.38 95.0724 662.82 109.913 640.994 109.913H579V147H642.916C687.407 147 719 116.271 719 73.3852C719.01 30.4299 687.548 0 642.916 0Z" fill="#E43D30"/>
</svg>
